<svg xmlns="http://www.w3.org/2000/svg" xmlns:xlink="http://www.w3.org/1999/xlink" width="40" zoomAndPan="magnify" viewBox="0 0 30 30.000001" height="40" preserveAspectRatio="xMidYMid meet" version="1.0"><defs><g/><clipPath id="56dc5514bb"><path d="M 3.132812 1.453125 L 26.867188 1.453125 L 26.867188 27.601562 L 3.132812 27.601562 Z M 3.132812 1.453125 " clip-rule="nonzero"/></clipPath><clipPath id="8e30a1607e"><path d="M 6.761719 1.453125 L 23.238281 1.453125 C 25.246094 1.453125 26.867188 3.078125 26.867188 5.082031 L 26.867188 23.953125 C 26.867188 25.957031 25.246094 27.582031 23.238281 27.582031 L 6.761719 27.582031 C 4.753906 27.582031 3.132812 25.957031 3.132812 23.953125 L 3.132812 5.082031 C 3.132812 3.078125 4.753906 1.453125 6.761719 1.453125 Z M 6.761719 1.453125 " clip-rule="nonzero"/></clipPath></defs><g clip-path="url(#56dc5514bb)"><g clip-path="url(#8e30a1607e)"><path fill="#059669" d="M 3.132812 1.453125 L 26.867188 1.453125 L 26.867188 27.601562 L 3.132812 27.601562 Z M 3.132812 1.453125 " fill-opacity="1" fill-rule="nonzero"/></g></g><g fill="#ffffff" fill-opacity="1"><g transform="translate(9.472824, 20.34323)"><g><path d="M 0.59375 -9.921875 L 0.59375 -12.015625 L 10.46875 -12.015625 L 10.46875 -9.921875 L 6.78125 -9.921875 L 6.78125 0 L 4.265625 0 L 4.265625 -9.921875 Z M 0.59375 -9.921875 "/></g></g></g></svg>